<svg width="545" height="546" viewBox="0 0 545 546" fill="none" xmlns="http://www.w3.org/2000/svg">
<g clip-path="url(#clip0_1924_172)">
<g clip-path="url(#clip1_1924_172)">
<g clip-path="url(#clip2_1924_172)">
<path d="M-0.382812 0.5V545.529H544.804V0.5H-0.382812ZM391.241 254.615V400.022H151.915V254.615H129.422V160.146H162.186C162.186 160.146 162.638 115.47 196.376 115.315C196.376 115.315 165.332 85.0189 196.828 58.9279C225.025 35.5584 260.247 69.7295 271.579 87.2206C282.912 69.7295 318.128 35.5584 346.331 58.9279C377.821 85.0189 346.783 115.315 346.783 115.315C380.521 115.47 380.973 160.146 380.973 160.146H413.734V254.615H391.241Z" fill="#B41E23"/>
<path d="M329.795 112.194C348.239 94.1996 347.341 55.9625 306.853 75.7614C266.365 95.5603 284.809 159.88 284.809 159.88C284.809 159.88 311.352 130.189 329.795 112.194Z" fill="#B41E23"/>
<path d="M200.089 128.838C178.497 127.488 181.194 159.879 181.194 159.879H239.673C239.673 159.879 221.681 130.188 200.086 128.838H200.089Z" fill="#B41E23"/>
<path d="M237.426 75.7575C196.939 55.9586 196.041 94.1957 214.484 112.19C232.928 130.185 259.471 159.876 259.471 159.876C259.471 159.876 277.914 95.5564 237.426 75.7575Z" fill="#B41E23"/>
<path d="M344.196 128.838C322.604 130.188 304.609 159.879 304.609 159.879H363.089C363.089 159.879 365.789 127.491 344.196 128.838Z" fill="#B41E23"/>
</g>
</g>
</g>
<defs>
<clipPath id="clip0_1924_172">
<rect width="544.3" height="545.3" fill="white"/>
</clipPath>
<clipPath id="clip1_1924_172">
<rect width="544.3" height="545.3" fill="white"/>
</clipPath>
<clipPath id="clip2_1924_172">
<rect width="544.3" height="544.3" fill="white" transform="translate(0 0.5)"/>
</clipPath>
</defs>
</svg>
